<svg width="37" height="37" viewBox="0 0 37 37" fill="none" xmlns="http://www.w3.org/2000/svg">
<rect x="0.5" y="0.5" width="36" height="36" rx="18" stroke="black"/>
<path d="M10 18.5L9.23397 17.734L8.46794 18.5L9.23397 19.266L10 18.5ZM26.25 19.5833C26.8483 19.5833 27.3333 19.0983 27.3333 18.5C27.3333 17.9017 26.8483 17.4167 26.25 17.4167V19.5833ZM16.5 12L15.734 11.234L9.23397 17.734L10 18.5L10.766 19.266L17.266 12.766L16.5 12ZM10 18.5L9.23397 19.266L15.734 25.766L16.5 25L17.266 24.234L10.766 17.734L10 18.5ZM10 18.5V19.5833H26.25V18.5V17.4167H10V18.5Z" fill="#33363F"/>
</svg>
